<svg data-v-5f19e91b="" xmlns="http://www.w3.org/2000/svg" width="310" height="90" viewBox="0 0 310 90"><!----> <!----> <!----> <g data-v-5f19e91b="" id="9bbc89c5-e417-7de1-0825-324e3f4a486a" fill="black" transform="matrix(6,0,0,6,101.9922543168068,-8.519998550415039)"><path d="M6.93 4.68C6.34 4.17 5.46 3.92 4.30 3.92L1.89 3.92L0.70 3.92L0.70 4.19C0.70 4.34 0.80 4.42 0.98 4.44L1.12 4.44C1.19 4.44 1.29 4.45 1.43 4.45C1.57 4.45 1.72 4.47 1.89 4.47L1.89 13.26C1.72 13.26 1.57 13.27 1.43 13.27C1.29 13.27 1.19 13.29 1.12 13.29L0.98 13.29C0.80 13.30 0.70 13.38 0.70 13.54L0.70 13.82L1.89 13.82L2.60 13.82L3.78 13.82L3.78 13.54C3.78 13.38 3.68 13.30 3.50 13.29L3.37 13.29C3.30 13.29 3.19 13.27 3.05 13.27C2.91 13.27 2.77 13.26 2.60 13.26L2.60 9.83L4.30 9.83C4.84 9.83 5.33 9.74 5.77 9.60C6.20 9.45 6.57 9.25 6.87 8.99C7.18 8.72 7.42 8.41 7.57 8.05C7.74 7.69 7.81 7.29 7.81 6.86C7.81 5.92 7.52 5.18 6.93 4.68ZM6.90 7.81C6.78 8.11 6.59 8.36 6.36 8.57C6.12 8.78 5.82 8.95 5.47 9.07C5.12 9.20 4.73 9.25 4.30 9.25L2.60 9.25L2.60 4.48L4.30 4.48C5.22 4.48 5.92 4.69 6.40 5.10C6.86 5.50 7.10 6.09 7.10 6.85C7.10 7.20 7.03 7.52 6.90 7.81ZM13.52 6.80C13.34 6.76 13.16 6.73 12.95 6.73C12.40 6.73 11.94 6.89 11.56 7.21C11.19 7.53 10.89 7.98 10.67 8.54L10.61 7.07C10.61 6.99 10.58 6.93 10.56 6.90C10.53 6.87 10.47 6.86 10.39 6.86L10.04 6.86L10.04 6.86L9.03 6.86L9.03 7.13C9.03 7.31 9.13 7.36 9.30 7.38C9.38 7.38 9.46 7.38 10.04 7.41L10.04 13.26C9.46 13.29 9.38 13.29 9.30 13.29C9.13 13.30 9.03 13.36 9.03 13.54L9.03 13.82L10.04 13.82L10.70 13.82L10.70 13.82L11.70 13.82L11.70 13.54C11.70 13.36 11.61 13.30 11.44 13.29C11.35 13.29 11.27 13.29 10.70 13.26L10.70 9.30C10.91 8.68 11.19 8.20 11.52 7.88C11.86 7.56 12.29 7.39 12.82 7.39C12.96 7.39 13.09 7.41 13.20 7.42C13.31 7.43 13.43 7.45 13.50 7.48C13.58 7.50 13.62 7.53 13.68 7.55C13.73 7.56 13.78 7.57 13.80 7.57C13.89 7.57 13.93 7.53 13.94 7.46L14.03 7.00C13.87 6.92 13.71 6.85 13.52 6.80ZM18.02 6.73C17.51 6.73 17.07 6.83 16.67 7.00C16.28 7.17 15.95 7.41 15.67 7.71C15.39 8.02 15.19 8.40 15.05 8.85C14.91 9.30 14.83 9.79 14.83 10.33C14.83 10.88 14.91 11.37 15.05 11.80C15.19 12.24 15.39 12.63 15.67 12.94C15.95 13.24 16.28 13.48 16.67 13.65C17.07 13.82 17.51 13.90 18.02 13.90C18.52 13.90 18.96 13.82 19.35 13.65C19.74 13.48 20.08 13.24 20.34 12.94C20.61 12.63 20.83 12.24 20.97 11.80C21.11 11.37 21.18 10.88 21.18 10.33C21.18 9.79 21.11 9.30 20.97 8.85C20.83 8.40 20.61 8.02 20.34 7.71C20.08 7.41 19.74 7.17 19.35 7.00C18.96 6.83 18.52 6.73 18.02 6.73ZM18.02 13.38C17.60 13.38 17.23 13.31 16.93 13.17C16.62 13.03 16.35 12.82 16.14 12.56C15.93 12.29 15.79 11.97 15.68 11.59C15.57 11.21 15.53 10.79 15.53 10.33C15.53 9.87 15.57 9.45 15.68 9.07C15.79 8.69 15.93 8.37 16.14 8.11C16.35 7.84 16.62 7.62 16.93 7.48C17.23 7.34 17.60 7.27 18.02 7.27C18.44 7.27 18.79 7.34 19.10 7.48C19.40 7.62 19.67 7.84 19.88 8.11C20.09 8.37 20.24 8.69 20.34 9.07C20.44 9.45 20.50 9.87 20.50 10.33C20.50 10.79 20.44 11.21 20.34 11.59C20.24 11.97 20.09 12.29 19.88 12.56C19.67 12.82 19.40 13.03 19.10 13.17C18.79 13.31 18.44 13.38 18.02 13.38ZM27.44 12.70C27.41 12.66 27.36 12.63 27.30 12.63C27.24 12.63 27.19 12.66 27.10 12.74C27.02 12.82 26.89 12.91 26.75 13.01C26.61 13.10 26.42 13.17 26.19 13.26C25.97 13.34 25.68 13.38 25.34 13.38C24.98 13.38 24.64 13.31 24.35 13.17C24.05 13.03 23.80 12.85 23.59 12.59C23.38 12.33 23.21 12.01 23.10 11.63C22.99 11.26 22.93 10.82 22.93 10.33C22.93 9.86 22.99 9.44 23.10 9.06C23.21 8.68 23.38 8.36 23.59 8.09C23.80 7.83 24.07 7.62 24.37 7.48C24.68 7.34 25.03 7.27 25.44 7.27C25.79 7.27 26.18 7.35 26.63 7.50C26.64 7.69 26.64 7.87 26.66 8.04C26.67 8.20 26.68 8.33 26.70 8.43C26.71 8.53 26.71 8.58 26.71 8.60C26.73 8.82 26.82 8.93 27.02 8.93L27.36 8.93L27.36 7.18L26.99 7.07C26.75 7.00 26.46 6.92 26.14 6.85C25.82 6.78 25.56 6.75 25.40 6.75C24.89 6.75 24.46 6.82 24.07 7.00C23.67 7.18 23.34 7.42 23.07 7.74C22.81 8.06 22.61 8.44 22.47 8.88C22.33 9.31 22.25 9.80 22.25 10.33C22.25 10.89 22.32 11.40 22.47 11.84C22.61 12.29 22.82 12.66 23.09 12.96C23.35 13.27 23.67 13.51 24.04 13.66C24.40 13.83 24.79 13.92 25.24 13.92C25.51 13.92 25.76 13.89 26.00 13.83C26.24 13.78 26.46 13.72 26.67 13.64C26.88 13.55 27.05 13.44 27.22 13.31C27.38 13.19 27.51 13.06 27.62 12.92ZM31.82 6.73C31.33 6.73 30.88 6.83 30.49 7.00C30.10 7.17 29.78 7.41 29.51 7.71C29.25 8.02 29.04 8.39 28.90 8.81C28.76 9.23 28.67 9.69 28.67 10.19C28.67 10.78 28.76 11.31 28.91 11.77C29.06 12.24 29.27 12.61 29.55 12.94C29.83 13.26 30.17 13.50 30.56 13.66C30.95 13.83 31.39 13.90 31.86 13.90C32.13 13.90 32.40 13.89 32.65 13.83C32.90 13.78 33.15 13.71 33.38 13.62C33.60 13.54 33.81 13.44 33.99 13.31C34.17 13.19 34.33 13.06 34.44 12.92L34.26 12.70C34.23 12.66 34.17 12.63 34.12 12.63C34.08 12.63 33.99 12.66 33.89 12.74C33.80 12.82 33.66 12.91 33.47 13.01C33.31 13.10 33.08 13.17 32.83 13.26C32.58 13.34 32.27 13.38 31.92 13.38C31.53 13.38 31.18 13.31 30.86 13.17C30.53 13.03 30.27 12.84 30.04 12.57C29.82 12.31 29.65 11.97 29.53 11.58C29.40 11.19 29.34 10.71 29.34 10.19L29.34 10.07L34.37 10.07C34.44 10.07 34.48 10.05 34.51 10.01C34.54 9.97 34.57 9.90 34.57 9.80C34.57 9.31 34.50 8.88 34.36 8.50C34.22 8.12 34.03 7.78 33.78 7.53C33.54 7.28 33.25 7.08 32.91 6.94C32.58 6.80 32.21 6.73 31.82 6.73ZM31.84 7.24C32.16 7.24 32.44 7.29 32.70 7.41C32.97 7.52 33.19 7.67 33.38 7.88C33.56 8.09 33.71 8.33 33.81 8.62C33.91 8.92 33.96 9.25 33.96 9.63L29.37 9.63C29.41 9.27 29.50 8.93 29.62 8.64C29.75 8.34 29.92 8.09 30.13 7.88C30.34 7.67 30.59 7.52 30.87 7.41C31.15 7.29 31.47 7.24 31.84 7.24Z"></path></g> <!----> <g data-v-5f19e91b="" id="6b5e75b2-8a7a-10ca-d3a1-58b778f8ea5c" transform="matrix(0.9311950924321137,0,0,0.9311950924321137,-2.8278695991923968,-0.8916318899992319)" stroke="none" fill="black"><path d="M10.9 49.2c.5.7.4 1.2 0 1.8-2.1 3.1-4.1 6.3-6.1 9.4-1.9 3.1-.7 6.6 2.7 7.9 3.5 1.3 7 2.7 10.5 4 .7.3 1 .6 1 1.4.2 3.5.6 7.1.5 10.6 0 3.6 3.1 6.8 7.4 5.4 3.4-1.1 6.9-1.9 10.4-2.9.7-.2 1.1-.1 1.6.5 2.3 2.9 4.6 5.7 6.9 8.6 2.6 3.1 6.2 3.1 8.8 0 2.3-2.9 4.6-5.7 6.9-8.6.4-.6.8-.7 1.5-.5 3.6 1 7.2 1.9 10.8 2.9 3.7 1 6.8-1.3 7-5l.6-11.1c0-.9.4-1.2 1.1-1.5l10.2-3.9c3.7-1.4 4.8-5 2.7-8.3-2-3.1-4-6.2-6-9.2-.5-.7-.4-1.2 0-1.8 2-3 3.9-6 5.9-9 2.3-3.6 1.1-7.1-2.9-8.5-3.4-1.2-6.7-2.5-10.1-3.8-.7-.3-1-.7-1-1.4-.2-3.7-.4-7.3-.6-11-.2-3.9-3.3-6.1-7-5.1-3.5.9-7.1 1.9-10.6 2.9-.8.2-1.2.1-1.7-.6-2.3-2.8-4.6-5.6-6.9-8.5-2.5-3.1-6.2-3.1-8.8 0-2.3 2.8-4.5 5.6-6.7 8.4-.6.8-1.1.9-2.1.7-3.5-1-6.9-1.9-9.4-2.6-4.8-1.2-7.7.8-7.9 4.8-.3 3.7-.4 7.4-.6 11.1 0 .8-.3 1.1-1 1.4-3.5 1.3-6.9 2.6-10.4 4C4 33.1 2.9 36.6 5 39.9c1.8 3.1 3.8 6.2 5.9 9.3zM50 25.4c13.6 0 24.6 11 24.6 24.6 0 13.6-11 24.6-24.6 24.6-13.6 0-24.6-11-24.6-24.6 0-13.6 11-24.6 24.6-24.6zM36.2 50c0-7.6 6.2-13.8 13.8-13.8.6 0 1.2.1 1.8.1-1.3 1.5-2.1 3.4-2.1 5.6 0 4.6 3.8 8.4 8.4 8.4 2.2 0 4.1-.8 5.6-2.1.1.6.1 1.2.1 1.8 0 7.6-6.2 13.8-13.8 13.8-7.6 0-13.8-6.2-13.8-13.8z"></path></g></svg>